<?xml version="1.0" standalone="no"?>
<!DOCTYPE svg PUBLIC "-//W3C//DTD SVG 20010904//EN"
 "http://www.w3.org/TR/2001/REC-SVG-20010904/DTD/svg10.dtd">
<svg version="1.0" xmlns="http://www.w3.org/2000/svg"
 width="310.000000pt" height="310.000000pt" viewBox="0 0 310.000000 310.000000"
 preserveAspectRatio="xMidYMid meet">
<metadata>
Created by potrace 1.11, written by Peter Selinger 2001-2013
</metadata>
<g transform="translate(0.000000,310.000000) scale(0.100000,-0.100000)"
fill="#000000" stroke="none">
<path d="M1740 2611 c-722 -163 -656 -146 -686 -176 l-24 -24 0 -741 c0 -590
-3 -741 -12 -736 -70 29 -128 38 -203 33 -210 -15 -391 -142 -426 -298 -34
-149 124 -258 329 -229 170 24 309 112 378 240 18 33 19 72 24 662 l5 626 24
26 c13 14 42 32 65 41 35 13 1064 245 1088 245 4 0 8 -225 8 -501 0 -473 -1
-501 -17 -494 -169 70 -386 27 -525 -103 -113 -106 -138 -225 -65 -308 51 -58
99 -77 209 -82 109 -5 204 17 288 66 66 38 146 117 172 171 l23 46 2 740 c2
407 5 754 8 772 3 18 17 46 30 62 27 31 33 61 13 61 -7 0 -24 9 -38 20 -14 11
-34 19 -45 19 -11 -1 -292 -63 -625 -138z"/>
</g>
</svg>
